# xmcd CD database file
#
# Track frame offsets:
#	150
#	1399
#	23032
#	39725
#	58325
#	69064
#	81661
#	102794
#	117821
#	138074
#	151429
#	164949
#	172565
#	188326
#	200209
#
# Disc length: 2883 seconds
#
# Revision: 0
# Processed by: cddbd v1.5.2PL0 Copyright (c) Steve Scherf et al.
# Submitted via: CDex 1.70beta2
#
DISCID=c10b410f
DTITLE=Various Artist - JazzAscona 2012
DYEAR=2012
DGENRE=Jazz
TTITLE0=JazzAscona Theme Song, ReGeneration of New Orleons Brass Band
TTITLE1=Exactly like you, Champian Fulton Trio
TTITLE2=Just For A Thrill, Lilian Boutté
TTITLE3=Keep Me In The Back Of Your Mind,  Bria Skonberg
TTITLE4=Black Cloud, Davina and the Vagabonds
TTITLE5=Tell Me Boy, Sugarpie and the Candymen
TTITLE6=Shiny Stockings, Charly Antolini and the Jazz Ladies
TTITLE7=Route 66, Caroline Mhlanga
TTITLE8=Over The Mountain, Nina Attal
TTITLE9=How Do They Do It That Way, Erika Lewis and Shayne Cohn with Norbert Susemihl
TTITLE10=Hands Off,  Christina Jaccard and Dave Ruosch Band
TTITLE11=That's My Girl, Martin Lechner
TTITLE12=Hamp's Hump, Sandro Schneebeli Bogaloo Quartet
TTITLE13=Symphony, The Australians
TTITLE14=How Come You Do Me Like You Do, Mark Brooks
EXTD=YEAR: 2012
EXTT0=
EXTT1=
EXTT2=
EXTT3=
EXTT4=
EXTT5=
EXTT6=
EXTT7=
EXTT8=
EXTT9=
EXTT10=
EXTT11=
EXTT12=
EXTT13=
EXTT14=
PLAYORDER=
